<?xml version="1.0" encoding="UTF-8" standalone="no"?>
<!DOCTYPE svg PUBLIC "-//W3C//DTD SVG 1.1//EN" "http://www.w3.org/Graphics/SVG/1.1/DTD/svg11.dtd">
<svg width="100%" height="100%" viewBox="0 0 28 31" version="1.1" xmlns="http://www.w3.org/2000/svg" xmlns:xlink="http://www.w3.org/1999/xlink" xml:space="preserve" xmlns:serif="http://www.serif.com/" style="fill-rule:evenodd;clip-rule:evenodd;stroke-linejoin:round;stroke-miterlimit:2;">
    <g transform="matrix(0.466392,0,0,0.466392,-1.25926,0.233196)">
        <path d="M15.5,5.9L15.5,0C15.5,-0.276 15.724,-0.5 16,-0.5L22.4,-0.5C22.676,-0.5 22.9,-0.276 22.9,0L22.9,5.9L41.1,5.9L41.1,-0C41.1,-0.276 41.324,-0.5 41.6,-0.5L48,-0.5C48.276,-0.5 48.5,-0.276 48.5,0L48.5,5.9L54.4,5.9C58.185,5.9 61.3,9.015 61.3,12.8L61.3,57.6C61.3,61.385 58.185,64.5 54.4,64.5L9.6,64.5C5.815,64.5 2.7,61.385 2.7,57.6L2.7,12.8C2.7,9.005 5.805,5.9 9.6,5.9L15.5,5.9ZM10.1,19.7L10.1,57.1L53.9,57.1L53.9,19.7L10.1,19.7ZM28.8,28.3L35.2,28.3C35.476,28.3 35.7,28.524 35.7,28.8L35.7,35.2C35.7,35.476 35.476,35.7 35.2,35.7L28.8,35.7C28.524,35.7 28.3,35.476 28.3,35.2L28.3,28.8C28.3,28.524 28.524,28.3 28.8,28.3ZM16,41.1L22.4,41.1C22.676,41.1 22.9,41.324 22.9,41.6L22.9,48C22.9,48.276 22.676,48.5 22.4,48.5L16,48.5C15.724,48.5 15.5,48.276 15.5,48L15.5,41.6C15.5,41.324 15.724,41.1 16,41.1ZM41.6,41.1L48,41.1C48.276,41.1 48.5,41.324 48.5,41.6L48.5,48C48.5,48.276 48.276,48.5 48,48.5L41.6,48.5C41.324,48.5 41.1,48.276 41.1,48L41.1,41.6C41.1,41.324 41.324,41.1 41.6,41.1ZM28.8,41.1L35.2,41.1C35.476,41.1 35.7,41.324 35.7,41.6L35.7,48C35.7,48.276 35.476,48.5 35.2,48.5L28.8,48.5C28.524,48.5 28.3,48.276 28.3,48L28.3,41.6C28.3,41.324 28.524,41.1 28.8,41.1ZM41.6,28.3L48,28.3C48.276,28.3 48.5,28.524 48.5,28.8L48.5,35.2C48.5,35.476 48.276,35.7 48,35.7L41.6,35.7C41.324,35.7 41.1,35.476 41.1,35.2L41.1,28.8C41.1,28.524 41.324,28.3 41.6,28.3ZM16,28.3L22.4,28.3C22.676,28.3 22.9,28.524 22.9,28.8L22.9,35.2C22.9,35.476 22.676,35.7 22.4,35.7L16,35.7C15.724,35.7 15.5,35.476 15.5,35.2L15.5,28.8C15.5,28.524 15.724,28.3 16,28.3Z" style="fill:rgb(255,179,0);"/>
    </g>
</svg>
