<?xml version="1.0" encoding="UTF-8" standalone="no"?>
<!DOCTYPE svg PUBLIC "-//W3C//DTD SVG 1.1//EN" "http://www.w3.org/Graphics/SVG/1.1/DTD/svg11.dtd">
<svg width="100%" height="100%" viewBox="0 0 117 112" version="1.1" xmlns="http://www.w3.org/2000/svg" xmlns:xlink="http://www.w3.org/1999/xlink" xml:space="preserve" xmlns:serif="http://www.serif.com/" style="fill-rule:evenodd;clip-rule:evenodd;stroke-linejoin:round;stroke-miterlimit:2;">
    <g transform="matrix(1.74212,0,0,1.74212,-115.3,-267.808)">
        <path d="M73.93,208.471C69.094,202.681 66.184,195.228 66.184,187.094C66.184,168.665 81.124,153.726 99.552,153.726C117.982,153.726 132.921,168.665 132.921,187.094C132.921,200.681 124.801,212.371 113.148,217.576C112.877,214.377 111.538,210.834 110.701,208.992C109.276,205.858 107.558,202.323 106.72,198.699C106.329,197.008 106.13,195.298 106.242,193.599C106.092,195.886 108.308,197.914 110.6,197.91C112.892,197.907 114.966,196.18 115.772,194.035C116.807,191.277 114.57,187.72 116.912,185.658C117.736,184.933 126.347,184.186 126.954,184.85C124.077,181.63 120.266,179.255 116.109,178.089C118.225,176.206 119.146,173.083 118.39,170.354C117.42,170.669 116.449,170.985 115.479,171.3C117.551,169.144 116.261,164.879 113.342,164.232C110.724,163.653 108.066,166.265 108.243,168.85C107.155,165.094 102.14,162.843 98.684,164.851C94.964,167.013 94.637,173.188 98.108,175.73C89.199,180.35 82.199,188.266 78.186,197.419C77.164,199.751 76.94,202.264 76.105,204.57C75.591,205.989 74.721,207.202 73.93,208.471Z" style="fill:white;"/>
    </g>
</svg>
